<mxfile host="app.diagrams.net" agent="Mozilla/5.0 (Windows NT 10.0; Win64; x64) AppleWebKit/537.36 (KHTML, like Gecko) Chrome/138.0.0.0 Safari/537.36 OPR/122.0.0.0 (Edition std-1)" version="28.2.8">
  <diagram id="C5RBs43oDa-KdzZeNtuy" name="Page-1">
    <mxGraphModel dx="1730" dy="2113" grid="1" gridSize="10" guides="1" tooltips="1" connect="1" arrows="1" fold="1" page="1" pageScale="1" pageWidth="827" pageHeight="1169" math="0" shadow="0">
      <root>
        <mxCell id="WIyWlLk6GJQsqaUBKTNV-0" />
        <mxCell id="WIyWlLk6GJQsqaUBKTNV-1" parent="WIyWlLk6GJQsqaUBKTNV-0" />
        <mxCell id="bFRosWHfTbhS6MpU1pSR-18" value="" style="edgeStyle=orthogonalEdgeStyle;rounded=0;orthogonalLoop=1;jettySize=auto;html=1;" edge="1" parent="WIyWlLk6GJQsqaUBKTNV-1" source="WIyWlLk6GJQsqaUBKTNV-3" target="bFRosWHfTbhS6MpU1pSR-17">
          <mxGeometry relative="1" as="geometry" />
        </mxCell>
        <mxCell id="WIyWlLk6GJQsqaUBKTNV-3" value="Turn on Computer Guesses" style="rounded=1;whiteSpace=wrap;html=1;fontSize=12;glass=0;strokeWidth=1;shadow=0;" parent="WIyWlLk6GJQsqaUBKTNV-1" vertex="1">
          <mxGeometry x="530" y="130" width="120" height="40" as="geometry" />
        </mxCell>
        <mxCell id="bFRosWHfTbhS6MpU1pSR-3" value="" style="edgeStyle=orthogonalEdgeStyle;rounded=0;orthogonalLoop=1;jettySize=auto;html=1;entryX=0.5;entryY=0;entryDx=0;entryDy=0;" edge="1" parent="WIyWlLk6GJQsqaUBKTNV-1" source="WIyWlLk6GJQsqaUBKTNV-6" target="WIyWlLk6GJQsqaUBKTNV-7">
          <mxGeometry relative="1" as="geometry">
            <mxPoint x="80" y="55" as="targetPoint" />
          </mxGeometry>
        </mxCell>
        <mxCell id="bFRosWHfTbhS6MpU1pSR-6" value="PvP" style="edgeLabel;html=1;align=center;verticalAlign=middle;resizable=0;points=[];" vertex="1" connectable="0" parent="bFRosWHfTbhS6MpU1pSR-3">
          <mxGeometry x="-0.0897" y="1" relative="1" as="geometry">
            <mxPoint as="offset" />
          </mxGeometry>
        </mxCell>
        <mxCell id="bFRosWHfTbhS6MpU1pSR-5" value="" style="edgeStyle=orthogonalEdgeStyle;rounded=0;orthogonalLoop=1;jettySize=auto;html=1;entryX=0.5;entryY=0;entryDx=0;entryDy=0;" edge="1" parent="WIyWlLk6GJQsqaUBKTNV-1" source="WIyWlLk6GJQsqaUBKTNV-6" target="WIyWlLk6GJQsqaUBKTNV-3">
          <mxGeometry relative="1" as="geometry">
            <mxPoint x="580" y="90" as="targetPoint" />
          </mxGeometry>
        </mxCell>
        <mxCell id="bFRosWHfTbhS6MpU1pSR-7" value="PvE" style="edgeLabel;html=1;align=center;verticalAlign=middle;resizable=0;points=[];" vertex="1" connectable="0" parent="bFRosWHfTbhS6MpU1pSR-5">
          <mxGeometry x="-0.0452" y="2" relative="1" as="geometry">
            <mxPoint as="offset" />
          </mxGeometry>
        </mxCell>
        <mxCell id="bFRosWHfTbhS6MpU1pSR-32" value="" style="edgeStyle=orthogonalEdgeStyle;rounded=0;orthogonalLoop=1;jettySize=auto;html=1;" edge="1" parent="WIyWlLk6GJQsqaUBKTNV-1" source="WIyWlLk6GJQsqaUBKTNV-6" target="WIyWlLk6GJQsqaUBKTNV-7">
          <mxGeometry relative="1" as="geometry" />
        </mxCell>
        <mxCell id="WIyWlLk6GJQsqaUBKTNV-6" value="Do you want to play PvP,&amp;nbsp;&lt;div&gt;PvE or Quit?&lt;/div&gt;" style="rhombus;whiteSpace=wrap;html=1;shadow=0;fontFamily=Helvetica;fontSize=12;align=center;strokeWidth=1;spacing=6;spacingTop=-4;" parent="WIyWlLk6GJQsqaUBKTNV-1" vertex="1">
          <mxGeometry x="270" y="-10" width="220" height="130" as="geometry" />
        </mxCell>
        <mxCell id="bFRosWHfTbhS6MpU1pSR-14" value="" style="edgeStyle=orthogonalEdgeStyle;rounded=0;orthogonalLoop=1;jettySize=auto;html=1;" edge="1" parent="WIyWlLk6GJQsqaUBKTNV-1" source="WIyWlLk6GJQsqaUBKTNV-7" target="bFRosWHfTbhS6MpU1pSR-13">
          <mxGeometry relative="1" as="geometry" />
        </mxCell>
        <mxCell id="WIyWlLk6GJQsqaUBKTNV-7" value="Draws the grid" style="rounded=1;whiteSpace=wrap;html=1;fontSize=12;glass=0;strokeWidth=1;shadow=0;" parent="WIyWlLk6GJQsqaUBKTNV-1" vertex="1">
          <mxGeometry x="320" y="180" width="120" height="40" as="geometry" />
        </mxCell>
        <mxCell id="bFRosWHfTbhS6MpU1pSR-21" value="" style="edgeStyle=orthogonalEdgeStyle;rounded=0;orthogonalLoop=1;jettySize=auto;html=1;" edge="1" parent="WIyWlLk6GJQsqaUBKTNV-1" source="bFRosWHfTbhS6MpU1pSR-0" target="WIyWlLk6GJQsqaUBKTNV-6">
          <mxGeometry relative="1" as="geometry" />
        </mxCell>
        <mxCell id="bFRosWHfTbhS6MpU1pSR-0" value="Start" style="strokeWidth=2;html=1;shape=mxgraph.flowchart.start_1;whiteSpace=wrap;" vertex="1" parent="WIyWlLk6GJQsqaUBKTNV-1">
          <mxGeometry x="330" y="-130" width="100" height="60" as="geometry" />
        </mxCell>
        <mxCell id="bFRosWHfTbhS6MpU1pSR-8" value="End/Quit" style="strokeWidth=2;html=1;shape=mxgraph.flowchart.start_1;whiteSpace=wrap;" vertex="1" parent="WIyWlLk6GJQsqaUBKTNV-1">
          <mxGeometry x="330" y="1050" width="100" height="60" as="geometry" />
        </mxCell>
        <mxCell id="bFRosWHfTbhS6MpU1pSR-9" value="" style="edgeStyle=orthogonalEdgeStyle;rounded=0;orthogonalLoop=1;jettySize=auto;html=1;entryX=1;entryY=0.5;entryDx=0;entryDy=0;exitX=1;exitY=0;exitDx=0;exitDy=0;entryPerimeter=0;" edge="1" parent="WIyWlLk6GJQsqaUBKTNV-1" source="WIyWlLk6GJQsqaUBKTNV-6" target="bFRosWHfTbhS6MpU1pSR-8">
          <mxGeometry relative="1" as="geometry">
            <mxPoint x="450" y="10" as="sourcePoint" />
            <mxPoint x="530" y="85" as="targetPoint" />
            <Array as="points">
              <mxPoint x="750" y="23" />
              <mxPoint x="750" y="1080" />
            </Array>
          </mxGeometry>
        </mxCell>
        <mxCell id="bFRosWHfTbhS6MpU1pSR-10" value="Quit" style="edgeLabel;html=1;align=center;verticalAlign=middle;resizable=0;points=[];fontSize=34;" vertex="1" connectable="0" parent="bFRosWHfTbhS6MpU1pSR-9">
          <mxGeometry x="-0.0452" y="2" relative="1" as="geometry">
            <mxPoint as="offset" />
          </mxGeometry>
        </mxCell>
        <mxCell id="bFRosWHfTbhS6MpU1pSR-16" value="" style="edgeStyle=orthogonalEdgeStyle;rounded=0;orthogonalLoop=1;jettySize=auto;html=1;entryX=0.5;entryY=0;entryDx=0;entryDy=0;" edge="1" parent="WIyWlLk6GJQsqaUBKTNV-1" source="bFRosWHfTbhS6MpU1pSR-13" target="bFRosWHfTbhS6MpU1pSR-53">
          <mxGeometry relative="1" as="geometry" />
        </mxCell>
        <mxCell id="bFRosWHfTbhS6MpU1pSR-13" value="Choose where to place&lt;div&gt;&amp;nbsp;X on the grid&lt;/div&gt;" style="shape=parallelogram;html=1;strokeWidth=2;perimeter=parallelogramPerimeter;whiteSpace=wrap;rounded=1;arcSize=0;size=0.28125;" vertex="1" parent="WIyWlLk6GJQsqaUBKTNV-1">
          <mxGeometry x="280" y="270" width="200" height="70" as="geometry" />
        </mxCell>
        <mxCell id="bFRosWHfTbhS6MpU1pSR-23" value="" style="edgeStyle=orthogonalEdgeStyle;rounded=0;orthogonalLoop=1;jettySize=auto;html=1;entryX=0.5;entryY=0;entryDx=0;entryDy=0;" edge="1" parent="WIyWlLk6GJQsqaUBKTNV-1" source="bFRosWHfTbhS6MpU1pSR-15" target="bFRosWHfTbhS6MpU1pSR-54">
          <mxGeometry relative="1" as="geometry" />
        </mxCell>
        <mxCell id="bFRosWHfTbhS6MpU1pSR-15" value="Choose where to place&amp;nbsp;&lt;div&gt;the O on the grid&lt;/div&gt;" style="shape=parallelogram;html=1;strokeWidth=2;perimeter=parallelogramPerimeter;whiteSpace=wrap;rounded=1;arcSize=0;size=0.28125;" vertex="1" parent="WIyWlLk6GJQsqaUBKTNV-1">
          <mxGeometry x="275" y="460" width="210" height="70" as="geometry" />
        </mxCell>
        <mxCell id="bFRosWHfTbhS6MpU1pSR-20" value="" style="edgeStyle=orthogonalEdgeStyle;rounded=0;orthogonalLoop=1;jettySize=auto;html=1;entryX=1;entryY=0.5;entryDx=0;entryDy=0;" edge="1" parent="WIyWlLk6GJQsqaUBKTNV-1" source="bFRosWHfTbhS6MpU1pSR-17" target="bFRosWHfTbhS6MpU1pSR-15">
          <mxGeometry relative="1" as="geometry">
            <mxPoint x="570" y="390" as="targetPoint" />
            <Array as="points">
              <mxPoint x="590" y="495" />
            </Array>
          </mxGeometry>
        </mxCell>
        <mxCell id="bFRosWHfTbhS6MpU1pSR-17" value="Draws the grid" style="rounded=1;whiteSpace=wrap;html=1;fontSize=12;glass=0;strokeWidth=1;shadow=0;" vertex="1" parent="WIyWlLk6GJQsqaUBKTNV-1">
          <mxGeometry x="530" y="270" width="120" height="40" as="geometry" />
        </mxCell>
        <mxCell id="bFRosWHfTbhS6MpU1pSR-30" value="" style="edgeStyle=orthogonalEdgeStyle;rounded=0;orthogonalLoop=1;jettySize=auto;html=1;exitX=0;exitY=0.5;exitDx=0;exitDy=0;" edge="1" parent="WIyWlLk6GJQsqaUBKTNV-1" source="bFRosWHfTbhS6MpU1pSR-22">
          <mxGeometry relative="1" as="geometry">
            <mxPoint x="330" y="575" as="sourcePoint" />
            <mxPoint x="380" y="250" as="targetPoint" />
            <Array as="points">
              <mxPoint x="160" y="705" />
              <mxPoint x="160" y="250" />
            </Array>
          </mxGeometry>
        </mxCell>
        <mxCell id="bFRosWHfTbhS6MpU1pSR-31" value="No" style="edgeLabel;html=1;align=center;verticalAlign=middle;resizable=0;points=[];fontSize=35;" vertex="1" connectable="0" parent="bFRosWHfTbhS6MpU1pSR-30">
          <mxGeometry x="-0.2334" y="1" relative="1" as="geometry">
            <mxPoint x="11" y="-59" as="offset" />
          </mxGeometry>
        </mxCell>
        <mxCell id="bFRosWHfTbhS6MpU1pSR-48" value="" style="edgeStyle=orthogonalEdgeStyle;rounded=0;orthogonalLoop=1;jettySize=auto;html=1;entryX=0.5;entryY=0;entryDx=0;entryDy=0;" edge="1" parent="WIyWlLk6GJQsqaUBKTNV-1" source="bFRosWHfTbhS6MpU1pSR-22" target="bFRosWHfTbhS6MpU1pSR-58">
          <mxGeometry relative="1" as="geometry" />
        </mxCell>
        <mxCell id="bFRosWHfTbhS6MpU1pSR-49" value="Yes" style="edgeLabel;html=1;align=center;verticalAlign=middle;resizable=0;points=[];" vertex="1" connectable="0" parent="bFRosWHfTbhS6MpU1pSR-48">
          <mxGeometry x="-0.05" y="-1" relative="1" as="geometry">
            <mxPoint x="1" as="offset" />
          </mxGeometry>
        </mxCell>
        <mxCell id="bFRosWHfTbhS6MpU1pSR-22" value="Did someone win or is there a draw?" style="rhombus;whiteSpace=wrap;html=1;shadow=0;fontFamily=Helvetica;fontSize=12;align=center;strokeWidth=1;spacing=6;spacingTop=-4;" vertex="1" parent="WIyWlLk6GJQsqaUBKTNV-1">
          <mxGeometry x="302.5" y="650" width="155" height="110" as="geometry" />
        </mxCell>
        <mxCell id="bFRosWHfTbhS6MpU1pSR-43" value="" style="edgeStyle=orthogonalEdgeStyle;rounded=0;orthogonalLoop=1;jettySize=auto;html=1;entryX=0.5;entryY=0;entryDx=0;entryDy=0;entryPerimeter=0;" edge="1" parent="WIyWlLk6GJQsqaUBKTNV-1" source="bFRosWHfTbhS6MpU1pSR-35" target="bFRosWHfTbhS6MpU1pSR-8">
          <mxGeometry relative="1" as="geometry">
            <mxPoint x="752.5" y="815" as="targetPoint" />
          </mxGeometry>
        </mxCell>
        <mxCell id="bFRosWHfTbhS6MpU1pSR-44" value="No" style="edgeLabel;html=1;align=center;verticalAlign=middle;resizable=0;points=[];" vertex="1" connectable="0" parent="bFRosWHfTbhS6MpU1pSR-43">
          <mxGeometry relative="1" as="geometry">
            <mxPoint y="-6" as="offset" />
          </mxGeometry>
        </mxCell>
        <mxCell id="bFRosWHfTbhS6MpU1pSR-46" value="" style="edgeStyle=orthogonalEdgeStyle;rounded=0;orthogonalLoop=1;jettySize=auto;html=1;entryX=0;entryY=0.5;entryDx=0;entryDy=0;exitX=0;exitY=0.5;exitDx=0;exitDy=0;" edge="1" parent="WIyWlLk6GJQsqaUBKTNV-1" source="bFRosWHfTbhS6MpU1pSR-50" target="WIyWlLk6GJQsqaUBKTNV-7">
          <mxGeometry relative="1" as="geometry">
            <Array as="points">
              <mxPoint x="70" y="200" />
            </Array>
          </mxGeometry>
        </mxCell>
        <mxCell id="bFRosWHfTbhS6MpU1pSR-35" value="You want to play again?" style="rhombus;whiteSpace=wrap;html=1;shadow=0;fontFamily=Helvetica;fontSize=12;align=center;strokeWidth=1;spacing=6;spacingTop=-4;" vertex="1" parent="WIyWlLk6GJQsqaUBKTNV-1">
          <mxGeometry x="305" y="910" width="150" height="100" as="geometry" />
        </mxCell>
        <mxCell id="bFRosWHfTbhS6MpU1pSR-51" value="" style="edgeStyle=orthogonalEdgeStyle;rounded=0;orthogonalLoop=1;jettySize=auto;html=1;entryX=0.5;entryY=1;entryDx=0;entryDy=0;exitX=0;exitY=0.5;exitDx=0;exitDy=0;" edge="1" parent="WIyWlLk6GJQsqaUBKTNV-1" source="bFRosWHfTbhS6MpU1pSR-35" target="bFRosWHfTbhS6MpU1pSR-50">
          <mxGeometry relative="1" as="geometry">
            <mxPoint x="305" y="740" as="sourcePoint" />
            <mxPoint x="320" y="200" as="targetPoint" />
            <Array as="points">
              <mxPoint x="70" y="960" />
            </Array>
          </mxGeometry>
        </mxCell>
        <mxCell id="bFRosWHfTbhS6MpU1pSR-52" value="Yes" style="edgeLabel;html=1;align=center;verticalAlign=middle;resizable=0;points=[];fontSize=20;" vertex="1" connectable="0" parent="bFRosWHfTbhS6MpU1pSR-51">
          <mxGeometry x="-0.3108" y="-1" relative="1" as="geometry">
            <mxPoint x="11" y="1" as="offset" />
          </mxGeometry>
        </mxCell>
        <mxCell id="bFRosWHfTbhS6MpU1pSR-50" value="Reset the board and the inputs" style="rounded=1;whiteSpace=wrap;html=1;fontSize=12;glass=0;strokeWidth=1;shadow=0;" vertex="1" parent="WIyWlLk6GJQsqaUBKTNV-1">
          <mxGeometry x="10" y="620" width="120" height="40" as="geometry" />
        </mxCell>
        <mxCell id="bFRosWHfTbhS6MpU1pSR-53" value="Draws the X" style="rounded=1;whiteSpace=wrap;html=1;fontSize=12;glass=0;strokeWidth=1;shadow=0;" vertex="1" parent="WIyWlLk6GJQsqaUBKTNV-1">
          <mxGeometry x="320" y="380" width="120" height="40" as="geometry" />
        </mxCell>
        <mxCell id="bFRosWHfTbhS6MpU1pSR-54" value="Draws the O" style="rounded=1;whiteSpace=wrap;html=1;fontSize=12;glass=0;strokeWidth=1;shadow=0;" vertex="1" parent="WIyWlLk6GJQsqaUBKTNV-1">
          <mxGeometry x="320" y="565" width="120" height="40" as="geometry" />
        </mxCell>
        <mxCell id="bFRosWHfTbhS6MpU1pSR-56" value="" style="edgeStyle=orthogonalEdgeStyle;rounded=0;orthogonalLoop=1;jettySize=auto;html=1;exitX=0.5;exitY=1;exitDx=0;exitDy=0;entryX=0.5;entryY=0;entryDx=0;entryDy=0;" edge="1" parent="WIyWlLk6GJQsqaUBKTNV-1" source="bFRosWHfTbhS6MpU1pSR-54" target="bFRosWHfTbhS6MpU1pSR-22">
          <mxGeometry relative="1" as="geometry">
            <mxPoint x="380" y="620" as="sourcePoint" />
            <mxPoint x="380" y="650" as="targetPoint" />
          </mxGeometry>
        </mxCell>
        <mxCell id="bFRosWHfTbhS6MpU1pSR-57" value="" style="edgeStyle=orthogonalEdgeStyle;rounded=0;orthogonalLoop=1;jettySize=auto;html=1;exitX=0.5;exitY=1;exitDx=0;exitDy=0;" edge="1" parent="WIyWlLk6GJQsqaUBKTNV-1" source="bFRosWHfTbhS6MpU1pSR-53">
          <mxGeometry relative="1" as="geometry">
            <mxPoint x="380" y="430" as="sourcePoint" />
            <mxPoint x="380" y="460" as="targetPoint" />
          </mxGeometry>
        </mxCell>
        <mxCell id="bFRosWHfTbhS6MpU1pSR-58" value="Draws the win/draw message" style="rounded=1;whiteSpace=wrap;html=1;fontSize=12;glass=0;strokeWidth=1;shadow=0;" vertex="1" parent="WIyWlLk6GJQsqaUBKTNV-1">
          <mxGeometry x="320" y="820" width="120" height="40" as="geometry" />
        </mxCell>
        <mxCell id="bFRosWHfTbhS6MpU1pSR-59" value="" style="edgeStyle=orthogonalEdgeStyle;rounded=0;orthogonalLoop=1;jettySize=auto;html=1;exitX=0.5;exitY=1;exitDx=0;exitDy=0;" edge="1" parent="WIyWlLk6GJQsqaUBKTNV-1" source="bFRosWHfTbhS6MpU1pSR-58">
          <mxGeometry relative="1" as="geometry">
            <mxPoint x="390" y="880" as="sourcePoint" />
            <mxPoint x="380" y="910" as="targetPoint" />
            <Array as="points">
              <mxPoint x="380" y="910" />
            </Array>
          </mxGeometry>
        </mxCell>
      </root>
    </mxGraphModel>
  </diagram>
</mxfile>
